<svg width="139" height="44" viewBox="0 0 139 44" fill="none" xmlns="http://www.w3.org/2000/svg">
<rect opacity="0.1" y="16" width="139" height="28" rx="14" fill="#F65F5F"/>
<path d="M32.4498 35V24.8182H35.8901C36.6889 24.8182 37.3418 24.9624 37.8489 25.2507C38.3593 25.5357 38.7372 25.9219 38.9824 26.4091C39.2277 26.8963 39.3503 27.4399 39.3503 28.0398C39.3503 28.6397 39.2277 29.1849 38.9824 29.6754C38.7405 30.166 38.3659 30.5571 37.8588 30.8487C37.3517 31.1371 36.7021 31.2812 35.91 31.2812H33.4441V30.1875H35.8702C36.4171 30.1875 36.8562 30.093 37.1877 29.9041C37.5191 29.7152 37.7594 29.46 37.9086 29.1385C38.061 28.8137 38.1373 28.4474 38.1373 28.0398C38.1373 27.6321 38.061 27.2675 37.9086 26.946C37.7594 26.6245 37.5175 26.3726 37.1827 26.1903C36.848 26.0047 36.4038 25.9119 35.8503 25.9119H33.6827V35H32.4498ZM44.2971 35.1591C43.5613 35.1591 42.9266 34.9967 42.3929 34.6719C41.8626 34.3438 41.4533 33.8864 41.165 33.2997C40.8799 32.7098 40.7374 32.0237 40.7374 31.2415C40.7374 30.4593 40.8799 29.7699 41.165 29.1733C41.4533 28.5734 41.8543 28.1061 42.3681 27.7713C42.8851 27.4332 43.4883 27.2642 44.1777 27.2642C44.5755 27.2642 44.9682 27.3305 45.356 27.4631C45.7438 27.5956 46.0968 27.8111 46.415 28.1094C46.7331 28.4044 46.9867 28.7955 47.1756 29.2827C47.3645 29.7699 47.459 30.3698 47.459 31.0824V31.5795H41.5726V30.5653H46.2658C46.2658 30.1345 46.1796 29.75 46.0073 29.4119C45.8382 29.0739 45.5963 28.8071 45.2814 28.6115C44.9699 28.416 44.602 28.3182 44.1777 28.3182C43.7104 28.3182 43.306 28.4342 42.9647 28.6662C42.6266 28.8949 42.3664 29.1932 42.1841 29.5611C42.0018 29.929 41.9107 30.3234 41.9107 30.7443V31.4205C41.9107 31.9972 42.0101 32.486 42.209 32.8871C42.4112 33.2848 42.6912 33.5881 43.0492 33.7969C43.4071 34.0024 43.8231 34.1051 44.2971 34.1051C44.6053 34.1051 44.8837 34.062 45.1323 33.9759C45.3842 33.8864 45.6013 33.7538 45.7836 33.5781C45.9659 33.3991 46.1067 33.1771 46.2061 32.9119L47.3397 33.2301C47.2203 33.6146 47.0198 33.9527 46.7381 34.2443C46.4564 34.5327 46.1084 34.758 45.6941 34.9205C45.2798 35.0795 44.8141 35.1591 44.2971 35.1591ZM52.3461 35.1591C51.6567 35.1591 51.0518 34.995 50.5314 34.6669C50.0144 34.3388 49.61 33.8797 49.3184 33.2898C49.03 32.6998 48.8858 32.0104 48.8858 31.2216C48.8858 30.4261 49.03 29.7318 49.3184 29.1385C49.61 28.5452 50.0144 28.0845 50.5314 27.7564C51.0518 27.4283 51.6567 27.2642 52.3461 27.2642C53.0355 27.2642 53.6387 27.4283 54.1557 27.7564C54.6761 28.0845 55.0804 28.5452 55.3688 29.1385C55.6605 29.7318 55.8063 30.4261 55.8063 31.2216C55.8063 32.0104 55.6605 32.6998 55.3688 33.2898C55.0804 33.8797 54.6761 34.3388 54.1557 34.6669C53.6387 34.995 53.0355 35.1591 52.3461 35.1591ZM52.3461 34.1051C52.8697 34.1051 53.3006 33.9709 53.6387 33.7024C53.9767 33.4339 54.227 33.081 54.3894 32.6435C54.5518 32.206 54.633 31.732 54.633 31.2216C54.633 30.7112 54.5518 30.2356 54.3894 29.7947C54.227 29.3539 53.9767 28.9976 53.6387 28.7259C53.3006 28.4541 52.8697 28.3182 52.3461 28.3182C51.8224 28.3182 51.3915 28.4541 51.0534 28.7259C50.7154 28.9976 50.4651 29.3539 50.3027 29.7947C50.1403 30.2356 50.0591 30.7112 50.0591 31.2216C50.0591 31.732 50.1403 32.206 50.3027 32.6435C50.4651 33.081 50.7154 33.4339 51.0534 33.7024C51.3915 33.9709 51.8224 34.1051 52.3461 34.1051ZM57.5973 37.8636V27.3636H58.7308V28.5767H58.87C58.9562 28.4441 59.0755 28.2751 59.228 28.0696C59.3838 27.8608 59.6058 27.6752 59.8942 27.5128C60.1858 27.3471 60.5803 27.2642 61.0774 27.2642C61.7204 27.2642 62.2872 27.425 62.7777 27.7464C63.2682 28.0679 63.651 28.5237 63.9261 29.1136C64.2012 29.7036 64.3388 30.3996 64.3388 31.2017C64.3388 32.0104 64.2012 32.7114 63.9261 33.3047C63.651 33.8946 63.2699 34.352 62.7827 34.6768C62.2955 34.9983 61.7337 35.1591 61.0973 35.1591C60.6068 35.1591 60.214 35.0779 59.919 34.9155C59.6241 34.7498 59.397 34.5625 59.2379 34.3537C59.0788 34.1416 58.9562 33.9659 58.87 33.8267H58.7706V37.8636H57.5973ZM58.7507 31.1818C58.7507 31.7585 58.8352 32.2673 59.0043 32.7081C59.1733 33.1456 59.4202 33.4886 59.745 33.7372C60.0698 33.9825 60.4676 34.1051 60.9382 34.1051C61.4287 34.1051 61.8381 33.9759 62.1662 33.7173C62.4976 33.4555 62.7462 33.1042 62.9119 32.6634C63.081 32.2192 63.1655 31.7254 63.1655 31.1818C63.1655 30.6449 63.0826 30.161 62.9169 29.7301C62.7545 29.2959 62.5076 28.9529 62.1761 28.701C61.848 28.4458 61.4354 28.3182 60.9382 28.3182C60.4609 28.3182 60.0599 28.4392 59.7351 28.6811C59.4103 28.9197 59.165 29.2545 58.9993 29.6854C58.8336 30.1129 58.7507 30.6117 58.7507 31.1818ZM67.3018 24.8182V35H66.1286V24.8182H67.3018ZM72.6525 35.1591C71.9167 35.1591 71.282 34.9967 70.7484 34.6719C70.2181 34.3438 69.8088 33.8864 69.5204 33.2997C69.2354 32.7098 69.0929 32.0237 69.0929 31.2415C69.0929 30.4593 69.2354 29.7699 69.5204 29.1733C69.8088 28.5734 70.2098 28.1061 70.7235 27.7713C71.2406 27.4332 71.8438 27.2642 72.5332 27.2642C72.9309 27.2642 73.3237 27.3305 73.7115 27.4631C74.0993 27.5956 74.4522 27.8111 74.7704 28.1094C75.0886 28.4044 75.3422 28.7955 75.5311 29.2827C75.72 29.7699 75.8145 30.3698 75.8145 31.0824V31.5795H69.9281V30.5653H74.6213C74.6213 30.1345 74.5351 29.75 74.3627 29.4119C74.1937 29.0739 73.9518 28.8071 73.6369 28.6115C73.3253 28.416 72.9574 28.3182 72.5332 28.3182C72.0659 28.3182 71.6615 28.4342 71.3201 28.6662C70.9821 28.8949 70.7219 29.1932 70.5396 29.5611C70.3573 29.929 70.2662 30.3234 70.2662 30.7443V31.4205C70.2662 31.9972 70.3656 32.486 70.5645 32.8871C70.7666 33.2848 71.0467 33.5881 71.4047 33.7969C71.7626 34.0024 72.1786 34.1051 72.6525 34.1051C72.9608 34.1051 73.2392 34.062 73.4877 33.9759C73.7396 33.8864 73.9567 33.7538 74.139 33.5781C74.3213 33.3991 74.4622 33.1771 74.5616 32.9119L75.6951 33.2301C75.5758 33.6146 75.3753 33.9527 75.0936 34.2443C74.8118 34.5327 74.4638 34.758 74.0495 34.9205C73.6352 35.0795 73.1696 35.1591 72.6525 35.1591ZM81.139 25.9119V24.8182H88.7754V25.9119H85.5737V35H84.3407V25.9119H81.139ZM89.7262 35V27.3636H90.8597V28.517H90.9393C91.0785 28.1392 91.3304 27.8326 91.695 27.5973C92.0595 27.362 92.4705 27.2443 92.9279 27.2443C93.0141 27.2443 93.1218 27.246 93.2511 27.2493C93.3803 27.2526 93.4781 27.2576 93.5444 27.2642V28.4574C93.5046 28.4474 93.4135 28.4325 93.271 28.4126C93.1317 28.3894 92.9843 28.3778 92.8285 28.3778C92.4573 28.3778 92.1258 28.4557 91.8342 28.6115C91.5458 28.764 91.3171 28.9761 91.1481 29.2479C90.9824 29.5163 90.8995 29.8229 90.8995 30.1676V35H89.7262ZM99.7477 31.8778V27.3636H100.921V35H99.7477V33.7074H99.6681C99.4892 34.0952 99.2108 34.425 98.8329 34.6967C98.4551 34.9652 97.9778 35.0994 97.4011 35.0994C96.9238 35.0994 96.4996 34.995 96.1284 34.7862C95.7572 34.5741 95.4655 34.2559 95.2534 33.8317C95.0413 33.4041 94.9352 32.8655 94.9352 32.2159V27.3636H96.1085V32.1364C96.1085 32.6932 96.2643 33.1373 96.5758 33.4688C96.8907 33.8002 97.2917 33.9659 97.7789 33.9659C98.0706 33.9659 98.3672 33.8913 98.6689 33.7422C98.9738 33.593 99.229 33.3643 99.4345 33.0561C99.6433 32.7479 99.7477 32.3551 99.7477 31.8778ZM108.479 29.0739L107.425 29.3722C107.359 29.1965 107.261 29.0258 107.132 28.8601C107.006 28.6911 106.833 28.5518 106.615 28.4425C106.396 28.3331 106.116 28.2784 105.775 28.2784C105.307 28.2784 104.918 28.3861 104.606 28.6016C104.298 28.8137 104.144 29.0838 104.144 29.4119C104.144 29.7036 104.25 29.9339 104.462 30.103C104.674 30.272 105.006 30.4129 105.456 30.5256L106.59 30.804C107.273 30.9697 107.781 31.2232 108.116 31.5646C108.451 31.9027 108.618 32.3385 108.618 32.8722C108.618 33.3097 108.492 33.7008 108.24 34.0455C107.992 34.3902 107.644 34.6619 107.196 34.8608C106.749 35.0597 106.229 35.1591 105.635 35.1591C104.856 35.1591 104.212 34.9901 103.701 34.652C103.191 34.3139 102.868 33.8201 102.732 33.1705L103.846 32.892C103.952 33.303 104.152 33.6113 104.447 33.8168C104.745 34.0223 105.135 34.125 105.615 34.125C106.162 34.125 106.596 34.009 106.918 33.777C107.243 33.5417 107.405 33.2599 107.405 32.9318C107.405 32.6667 107.312 32.4446 107.127 32.2656C106.941 32.0833 106.656 31.9474 106.272 31.858L104.999 31.5597C104.3 31.3939 103.786 31.1371 103.458 30.7891C103.133 30.4377 102.971 29.9986 102.971 29.4716C102.971 29.0407 103.092 28.6596 103.333 28.3281C103.579 27.9967 103.912 27.7365 104.333 27.5476C104.757 27.3587 105.238 27.2642 105.775 27.2642C106.53 27.2642 107.123 27.4299 107.554 27.7614C107.989 28.0928 108.297 28.5303 108.479 29.0739ZM113.705 27.3636V28.358H109.748V27.3636H113.705ZM110.901 25.5341H112.075V32.8125C112.075 33.1439 112.123 33.3925 112.219 33.5582C112.318 33.7206 112.444 33.83 112.597 33.8864C112.753 33.9394 112.917 33.9659 113.089 33.9659C113.218 33.9659 113.324 33.9593 113.407 33.946C113.49 33.9295 113.556 33.9162 113.606 33.9062L113.845 34.9602C113.765 34.9901 113.654 35.0199 113.512 35.0497C113.369 35.0829 113.188 35.0994 112.97 35.0994C112.638 35.0994 112.313 35.0282 111.995 34.8857C111.68 34.7431 111.419 34.526 111.21 34.2344C111.004 33.9427 110.901 33.5748 110.901 33.1307V25.5341ZM124.22 31.8778V27.3636H125.394V35H124.22V33.7074H124.141C123.962 34.0952 123.683 34.425 123.306 34.6967C122.928 34.9652 122.45 35.0994 121.874 35.0994C121.396 35.0994 120.972 34.995 120.601 34.7862C120.23 34.5741 119.938 34.2559 119.726 33.8317C119.514 33.4041 119.408 32.8655 119.408 32.2159V27.3636H120.581V32.1364C120.581 32.6932 120.737 33.1373 121.048 33.4688C121.363 33.8002 121.764 33.9659 122.252 33.9659C122.543 33.9659 122.84 33.8913 123.142 33.7422C123.446 33.593 123.702 33.3643 123.907 33.0561C124.116 32.7479 124.22 32.3551 124.22 31.8778ZM132.952 29.0739L131.898 29.3722C131.831 29.1965 131.734 29.0258 131.604 28.8601C131.478 28.6911 131.306 28.5518 131.087 28.4425C130.869 28.3331 130.589 28.2784 130.247 28.2784C129.78 28.2784 129.39 28.3861 129.079 28.6016C128.771 28.8137 128.616 29.0838 128.616 29.4119C128.616 29.7036 128.723 29.9339 128.935 30.103C129.147 30.272 129.478 30.4129 129.929 30.5256L131.062 30.804C131.745 30.9697 132.254 31.2232 132.589 31.5646C132.924 31.9027 133.091 32.3385 133.091 32.8722C133.091 33.3097 132.965 33.7008 132.713 34.0455C132.464 34.3902 132.116 34.6619 131.669 34.8608C131.222 35.0597 130.701 35.1591 130.108 35.1591C129.329 35.1591 128.684 34.9901 128.174 34.652C127.664 34.3139 127.34 33.8201 127.205 33.1705L128.318 32.892C128.424 33.303 128.625 33.6113 128.92 33.8168C129.218 34.0223 129.607 34.125 130.088 34.125C130.635 34.125 131.069 34.009 131.391 33.777C131.715 33.5417 131.878 33.2599 131.878 32.9318C131.878 32.6667 131.785 32.4446 131.599 32.2656C131.414 32.0833 131.129 31.9474 130.744 31.858L129.472 31.5597C128.772 31.3939 128.259 31.1371 127.93 30.7891C127.606 30.4377 127.443 29.9986 127.443 29.4716C127.443 29.0407 127.564 28.6596 127.806 28.3281C128.051 27.9967 128.384 27.7365 128.805 27.5476C129.23 27.3587 129.71 27.2642 130.247 27.2642C131.003 27.2642 131.596 27.4299 132.027 27.7614C132.461 28.0928 132.769 28.5303 132.952 29.0739Z" fill="white"/>
<circle cx="15" cy="30" r="10" fill="#F65F5F"/>
<path d="M21.6613 2.49202C21.4441 2.06456 21.1309 1.6772 20.7392 1.35162C20.3472 1.02507 19.8851 0.765565 19.3779 0.587218C18.852 0.401549 18.288 0.306513 17.7185 0.307627C16.9195 0.307627 16.1401 0.493562 15.4627 0.844773C15.3006 0.928788 15.1467 1.02107 15.0008 1.12161C14.855 1.02107 14.701 0.928788 14.5389 0.844773C13.8616 0.493562 13.0821 0.307627 12.2831 0.307627C11.7078 0.307627 11.1504 0.401283 10.6237 0.587218C10.1148 0.766267 9.65621 1.02382 9.26241 1.35162C8.87023 1.67683 8.55695 2.06428 8.34032 2.49202C8.11506 2.93689 8 3.4093 8 3.89549C8 4.35413 8.1102 4.83205 8.32897 5.31823C8.5121 5.72453 8.77463 6.14599 9.11008 6.57157C9.64162 7.24507 10.3725 7.94749 11.28 8.65956C12.7839 9.8399 14.2732 10.6553 14.3364 10.6883L14.7204 10.8977C14.8906 10.9899 15.1094 10.9899 15.2795 10.8977L15.6636 10.6883C15.7268 10.6539 17.2145 9.8399 18.72 8.65956C19.6275 7.94749 20.3584 7.24507 20.8899 6.57157C21.2254 6.14599 21.4895 5.72453 21.671 5.31823C21.8898 4.83205 22 4.35413 22 3.89549C22.0016 3.4093 21.8865 2.93689 21.6613 2.49202Z" fill="#FDCE77"/>
</svg>
