<svg width="213" height="112" viewBox="0 0 213 112" fill="none" xmlns="http://www.w3.org/2000/svg">
<path d="M106.672 49.017L108.848 49L111.483 40.058L113.965 49H116.158L119.66 37.185H117.586L115.121 46.756L112.656 37.185H110.48L107.828 46.807L105.38 37.185H103.323L106.672 49.017ZM120.612 44.274C120.612 47.164 122.567 49.153 124.998 49.153C126.562 49.153 127.684 48.405 128.279 47.606V49H130.234V39.633H128.279V40.993C127.701 40.228 126.613 39.48 125.032 39.48C122.567 39.48 120.612 41.384 120.612 44.274ZM128.279 44.308C128.279 46.331 126.902 47.47 125.44 47.47C123.995 47.47 122.601 46.297 122.601 44.274C122.601 42.251 123.995 41.163 125.44 41.163C126.902 41.163 128.279 42.302 128.279 44.308ZM133.086 46.399C133.086 48.303 134.123 49 135.789 49H137.319V47.385H136.129C135.313 47.385 135.041 47.096 135.041 46.399V41.214H137.319V39.633H135.041V37.304H133.086V39.633H131.981V41.214H133.086V46.399ZM138.459 44.308C138.459 47.249 140.363 49.153 143.049 49.153C145.344 49.153 146.84 47.878 147.367 46.042H145.276C144.919 47.011 144.205 47.521 143.049 47.521C141.485 47.521 140.448 46.365 140.448 44.308C140.448 42.268 141.485 41.112 143.049 41.112C144.205 41.112 144.953 41.69 145.276 42.591H147.367C146.84 40.619 145.344 39.48 143.049 39.48C140.363 39.48 138.459 41.384 138.459 44.308ZM149.298 49H151.236V43.764C151.236 42.047 152.171 41.163 153.599 41.163C155.01 41.163 155.945 42.047 155.945 43.764V49H157.866V43.475C157.866 40.857 156.234 39.48 154.143 39.48C152.936 39.48 151.882 39.939 151.236 40.721V36.42H149.298V49ZM169.378 47.011L165.876 37.185H163.802L168.256 49H170.5L174.937 37.185H172.897L169.378 47.011ZM176.558 49H178.496V39.633H176.558V49ZM177.544 38.392C178.224 38.392 178.768 37.848 178.768 37.151C178.768 36.454 178.224 35.91 177.544 35.91C176.847 35.91 176.303 36.454 176.303 37.151C176.303 37.848 176.847 38.392 177.544 38.392ZM180.395 44.274C180.395 47.164 182.35 49.153 184.815 49.153C186.345 49.153 187.467 48.439 188.062 47.589V49H190.017V36.42H188.062V40.942C187.348 40.058 186.056 39.48 184.832 39.48C182.35 39.48 180.395 41.384 180.395 44.274ZM188.062 44.308C188.062 46.331 186.685 47.47 185.223 47.47C183.778 47.47 182.384 46.297 182.384 44.274C182.384 42.251 183.778 41.163 185.223 41.163C186.685 41.163 188.062 42.302 188.062 44.308ZM196.506 41.112C197.951 41.112 199.09 42.03 199.124 43.475H193.939C194.143 41.996 195.197 41.112 196.506 41.112ZM200.892 46.212H198.801C198.444 46.943 197.781 47.521 196.591 47.521C195.163 47.521 194.058 46.586 193.922 45.039H201.079C201.13 44.716 201.147 44.41 201.147 44.087C201.147 41.333 199.26 39.48 196.591 39.48C193.82 39.48 191.916 41.367 191.916 44.308C191.916 47.249 193.905 49.153 196.591 49.153C198.886 49.153 200.365 47.844 200.892 46.212ZM211.979 44.308C211.979 41.367 209.871 39.48 207.202 39.48C204.533 39.48 202.425 41.367 202.425 44.308C202.425 47.249 204.448 49.153 207.117 49.153C209.803 49.153 211.979 47.249 211.979 44.308ZM204.397 44.308C204.397 42.183 205.706 41.163 207.168 41.163C208.613 41.163 209.99 42.183 209.99 44.308C209.99 46.433 208.562 47.47 207.117 47.47C205.655 47.47 204.397 46.433 204.397 44.308Z" fill="white"/>
<g filter="url(#filter0_d_381_411)">
<circle cx="56" cy="41" r="26" fill="#0D0D0D"/>
</g>
<path d="M64 42.5L52.75 48.9952L52.75 36.0048L64 42.5Z" fill="#F65F5F"/>
<defs>
<filter id="filter0_d_381_411" x="0" y="0" width="112" height="112" filterUnits="userSpaceOnUse" color-interpolation-filters="sRGB">
<feFlood flood-opacity="0" result="BackgroundImageFix"/>
<feColorMatrix in="SourceAlpha" type="matrix" values="0 0 0 0 0 0 0 0 0 0 0 0 0 0 0 0 0 0 127 0" result="hardAlpha"/>
<feOffset dy="15"/>
<feGaussianBlur stdDeviation="15"/>
<feColorMatrix type="matrix" values="0 0 0 0 0.87451 0 0 0 0 0.411765 0 0 0 0 0.317647 0 0 0 0.3 0"/>
<feBlend mode="normal" in2="BackgroundImageFix" result="effect1_dropShadow_381_411"/>
<feBlend mode="normal" in="SourceGraphic" in2="effect1_dropShadow_381_411" result="shape"/>
</filter>
</defs>
</svg>
